<?xml version="1.0" encoding="UTF-8" standalone="no"?>
<!DOCTYPE svg PUBLIC "-//W3C//DTD SVG 1.1//EN"
 "http://www.w3.org/Graphics/SVG/1.1/DTD/svg11.dtd">
<!-- Generated by graphviz version 2.38.0 (20140413.2041)
 -->
<!-- Title: %3 Pages: 1 -->
<svg width="388pt" height="552pt"
 viewBox="0.00 0.00 388.00 552.00" xmlns="http://www.w3.org/2000/svg" xmlns:xlink="http://www.w3.org/1999/xlink">
<g id="graph0" class="graph" transform="scale(1 1) rotate(0) translate(4 548)">
<title>%3</title>
<polygon fill="white" stroke="none" points="-4,4 -4,-548 384,-548 384,4 -4,4"/>
<!-- FirstVerb -->
<g id="node1" class="node"><title>FirstVerb</title>
<polygon fill="none" stroke="red" points="68,-544 0,-544 0,-508 68,-508 68,-544"/>
<text text-anchor="middle" x="34" y="-522.3" font-family="Times,serif" font-size="14.00">FirstVerb</text>
</g>
<!-- FirstSequence -->
<g id="node5" class="node"><title>FirstSequence</title>
<polygon fill="none" stroke="red" points="165.5,-472 76.5,-472 72.5,-468 72.5,-436 161.5,-436 165.5,-440 165.5,-472"/>
<polyline fill="none" stroke="red" points="161.5,-468 72.5,-468 "/>
<polyline fill="none" stroke="red" points="161.5,-468 161.5,-436 "/>
<polyline fill="none" stroke="red" points="161.5,-468 165.5,-472 "/>
<text text-anchor="middle" x="119" y="-450.3" font-family="Times,serif" font-size="14.00">FirstSequence</text>
</g>
<!-- FirstVerb&#45;&gt;FirstSequence -->
<g id="edge1" class="edge"><title>FirstVerb&#45;&gt;FirstSequence</title>
<path fill="none" stroke="red" d="M55.0112,-507.697C65.7163,-498.881 78.8897,-488.032 90.4956,-478.474"/>
<polygon fill="red" stroke="red" points="92.7361,-481.163 98.2305,-472.104 88.2861,-475.76 92.7361,-481.163"/>
</g>
<!-- FirstObject -->
<g id="node2" class="node"><title>FirstObject</title>
<polygon fill="none" stroke="red" points="163.5,-544 86.5,-544 86.5,-508 163.5,-508 163.5,-544"/>
<text text-anchor="middle" x="125" y="-522.3" font-family="Times,serif" font-size="14.00">FirstObject</text>
</g>
<!-- FirstObject&#45;&gt;FirstSequence -->
<g id="edge2" class="edge"><title>FirstObject&#45;&gt;FirstSequence</title>
<path fill="none" stroke="red" d="M123.517,-507.697C122.856,-499.983 122.061,-490.712 121.324,-482.112"/>
<polygon fill="red" stroke="red" points="124.807,-481.769 120.466,-472.104 117.833,-482.367 124.807,-481.769"/>
</g>
<!-- SecondVerb -->
<g id="node3" class="node"><title>SecondVerb</title>
<polygon fill="none" stroke="blue" points="269.5,-544 186.5,-544 186.5,-508 269.5,-508 269.5,-544"/>
<text text-anchor="middle" x="228" y="-522.3" font-family="Times,serif" font-size="14.00">SecondVerb</text>
</g>
<!-- SecondSequence -->
<g id="node6" class="node"><title>SecondSequence</title>
<polygon fill="none" stroke="blue" points="292,-472 188,-472 184,-468 184,-436 288,-436 292,-440 292,-472"/>
<polyline fill="none" stroke="blue" points="288,-468 184,-468 "/>
<polyline fill="none" stroke="blue" points="288,-468 288,-436 "/>
<polyline fill="none" stroke="blue" points="288,-468 292,-472 "/>
<text text-anchor="middle" x="238" y="-450.3" font-family="Times,serif" font-size="14.00">SecondSequence</text>
</g>
<!-- SecondVerb&#45;&gt;SecondSequence -->
<g id="edge3" class="edge"><title>SecondVerb&#45;&gt;SecondSequence</title>
<path fill="none" stroke="blue" d="M230.472,-507.697C231.574,-499.983 232.898,-490.712 234.127,-482.112"/>
<polygon fill="blue" stroke="blue" points="237.607,-482.499 235.557,-472.104 230.677,-481.509 237.607,-482.499"/>
</g>
<!-- SecondObject -->
<g id="node4" class="node"><title>SecondObject</title>
<polygon fill="none" stroke="blue" points="380,-544 288,-544 288,-508 380,-508 380,-544"/>
<text text-anchor="middle" x="334" y="-522.3" font-family="Times,serif" font-size="14.00">SecondObject</text>
</g>
<!-- SecondObject&#45;&gt;SecondSequence -->
<g id="edge4" class="edge"><title>SecondObject&#45;&gt;SecondSequence</title>
<path fill="none" stroke="blue" d="M310.27,-507.697C298.063,-498.796 283.015,-487.823 269.816,-478.199"/>
<polygon fill="blue" stroke="blue" points="271.6,-475.168 261.457,-472.104 267.475,-480.824 271.6,-475.168"/>
</g>
<!-- Recurrent -->
<g id="node11" class="node"><title>Recurrent</title>
<ellipse fill="lightgrey" stroke="black" cx="178" cy="-382" rx="45.4919" ry="18"/>
<text text-anchor="middle" x="178" y="-378.3" font-family="Times,serif" font-size="14.00">Recurrent</text>
</g>
<!-- FirstSequence&#45;&gt;Recurrent -->
<g id="edge5" class="edge"><title>FirstSequence&#45;&gt;Recurrent</title>
<path fill="none" stroke="red" d="M133.584,-435.697C140.763,-427.179 149.541,-416.765 157.392,-407.45"/>
<polygon fill="red" stroke="red" points="160.221,-409.524 163.99,-399.622 154.869,-405.013 160.221,-409.524"/>
</g>
<!-- SecondSequence&#45;&gt;Recurrent -->
<g id="edge6" class="edge"><title>SecondSequence&#45;&gt;Recurrent</title>
<path fill="none" stroke="blue" d="M223.169,-435.697C215.868,-427.179 206.941,-416.765 198.957,-407.45"/>
<polygon fill="blue" stroke="blue" points="201.413,-404.937 192.248,-399.622 196.098,-409.493 201.413,-404.937"/>
</g>
<!-- FirstRR -->
<g id="node7" class="node"><title>FirstRR</title>
<polygon fill="none" stroke="red" points="165.5,-328 106.5,-328 106.5,-292 165.5,-292 165.5,-328"/>
<text text-anchor="middle" x="136" y="-306.3" font-family="Times,serif" font-size="14.00">FirstRR</text>
</g>
<!-- Cosine -->
<g id="node12" class="node"><title>Cosine</title>
<ellipse fill="lightgrey" stroke="black" cx="214" cy="-238" rx="35.194" ry="18"/>
<text text-anchor="middle" x="214" y="-234.3" font-family="Times,serif" font-size="14.00">Cosine</text>
</g>
<!-- FirstRR&#45;&gt;Cosine -->
<g id="edge9" class="edge"><title>FirstRR&#45;&gt;Cosine</title>
<path fill="none" stroke="red" d="M155.281,-291.697C165.663,-282.379 178.576,-270.791 189.646,-260.856"/>
<polygon fill="red" stroke="red" points="192.215,-263.254 197.319,-253.97 187.539,-258.044 192.215,-263.254"/>
</g>
<!-- SecondRR -->
<g id="node8" class="node"><title>SecondRR</title>
<polygon fill="none" stroke="blue" points="258,-328 184,-328 184,-292 258,-292 258,-328"/>
<text text-anchor="middle" x="221" y="-306.3" font-family="Times,serif" font-size="14.00">SecondRR</text>
</g>
<!-- SecondRR&#45;&gt;Cosine -->
<g id="edge10" class="edge"><title>SecondRR&#45;&gt;Cosine</title>
<path fill="none" stroke="blue" d="M219.27,-291.697C218.498,-283.983 217.571,-274.712 216.711,-266.112"/>
<polygon fill="blue" stroke="blue" points="220.188,-265.706 215.71,-256.104 213.223,-266.403 220.188,-265.706"/>
</g>
<!-- Similarity -->
<g id="node9" class="node"><title>Similarity</title>
<polygon fill="none" stroke="purple" points="249.5,-184 178.5,-184 178.5,-148 249.5,-148 249.5,-184"/>
<text text-anchor="middle" x="214" y="-162.3" font-family="Times,serif" font-size="14.00">Similarity</text>
</g>
<!-- Predictor -->
<g id="node13" class="node"><title>Predictor</title>
<ellipse fill="lightgrey" stroke="black" cx="214" cy="-94" rx="42.7926" ry="18"/>
<text text-anchor="middle" x="214" y="-90.3" font-family="Times,serif" font-size="14.00">Predictor</text>
</g>
<!-- Similarity&#45;&gt;Predictor -->
<g id="edge12" class="edge"><title>Similarity&#45;&gt;Predictor</title>
<path fill="none" stroke="purple" d="M214,-147.697C214,-139.983 214,-130.712 214,-122.112"/>
<polygon fill="purple" stroke="purple" points="217.5,-122.104 214,-112.104 210.5,-122.104 217.5,-122.104"/>
</g>
<!-- ŷ -->
<g id="node10" class="node"><title>ŷ</title>
<ellipse fill="none" stroke="purple" cx="214" cy="-20" rx="20" ry="20"/>
<text text-anchor="middle" x="214" y="-16.3" font-family="Times,serif" font-size="14.00">ŷ</text>
</g>
<!-- ŷ&#45;&gt;Recurrent -->
<g id="edge14" class="edge"><title>ŷ&#45;&gt;Recurrent</title>
<path fill="none" stroke="black" stroke-dasharray="1,5" d="M198.773,-33.5411C187.175,-43.8426 171.613,-59.3969 162,-76 111.766,-162.759 111.6,-192.816 97,-292 94.6699,-307.829 89.3897,-313.926 97,-328 105.687,-344.065 121.594,-356.041 137.027,-364.505"/>
<polygon fill="black" stroke="black" points="135.503,-367.657 146.001,-369.087 138.687,-361.422 135.503,-367.657"/>
</g>
<!-- ŷ&#45;&gt;Predictor -->
<g id="edge15" class="edge"><title>ŷ&#45;&gt;Predictor</title>
<path fill="none" stroke="black" stroke-dasharray="1,5" d="M219.955,-39.1992C220.744,-47.3068 220.945,-57.0241 220.561,-65.956"/>
<polygon fill="black" stroke="black" points="217.069,-65.7108 219.84,-75.937 224.051,-66.2152 217.069,-65.7108"/>
</g>
<!-- Recurrent&#45;&gt;FirstRR -->
<g id="edge7" class="edge"><title>Recurrent&#45;&gt;FirstRR</title>
<path fill="none" stroke="red" d="M168.047,-364.411C163.171,-356.285 157.184,-346.307 151.711,-337.184"/>
<polygon fill="red" stroke="red" points="154.614,-335.221 146.468,-328.447 148.612,-338.822 154.614,-335.221"/>
</g>
<!-- Recurrent&#45;&gt;SecondRR -->
<g id="edge8" class="edge"><title>Recurrent&#45;&gt;SecondRR</title>
<path fill="none" stroke="blue" d="M188.19,-364.411C193.182,-356.285 199.311,-346.307 204.915,-337.184"/>
<polygon fill="blue" stroke="blue" points="208.031,-338.8 210.283,-328.447 202.066,-335.136 208.031,-338.8"/>
</g>
<!-- Cosine&#45;&gt;Similarity -->
<g id="edge11" class="edge"><title>Cosine&#45;&gt;Similarity</title>
<path fill="none" stroke="purple" d="M214,-219.697C214,-211.983 214,-202.712 214,-194.112"/>
<polygon fill="purple" stroke="purple" points="217.5,-194.104 214,-184.104 210.5,-194.104 217.5,-194.104"/>
</g>
<!-- Predictor&#45;&gt;ŷ -->
<g id="edge13" class="edge"><title>Predictor&#45;&gt;ŷ</title>
<path fill="none" stroke="purple" d="M208.16,-75.937C207.317,-67.9865 207.059,-58.3134 207.389,-49.3127"/>
<polygon fill="purple" stroke="purple" points="210.89,-49.4048 208.045,-39.1992 203.905,-48.9516 210.89,-49.4048"/>
</g>
</g>
</svg>
