<?xml version="1.0" encoding="UTF-8" standalone="no"?>
<!DOCTYPE svg PUBLIC "-//W3C//DTD SVG 1.1//EN"
 "http://www.w3.org/Graphics/SVG/1.1/DTD/svg11.dtd">
<!-- Generated by graphviz version 2.38.0 (20140413.2041)
 -->
<!-- Title: %3 Pages: 1 -->
<svg width="388pt" height="573pt"
 viewBox="0.00 0.00 388.00 573.00" xmlns="http://www.w3.org/2000/svg" xmlns:xlink="http://www.w3.org/1999/xlink">
<g id="graph0" class="graph" transform="scale(1 1) rotate(0) translate(4 569)">
<title>%3</title>
<polygon fill="white" stroke="none" points="-4,4 -4,-569 384,-569 384,4 -4,4"/>
<!-- FirstVerb -->
<g id="node1" class="node"><title>FirstVerb</title>
<polygon fill="none" stroke="red" points="68,-565 0,-565 0,-529 68,-529 68,-565"/>
<text text-anchor="middle" x="34" y="-543.3" font-family="Times,serif" font-size="14.00">FirstVerb</text>
</g>
<!-- FirstSequence -->
<g id="node5" class="node"><title>FirstSequence</title>
<polygon fill="none" stroke="red" points="165.5,-492 76.5,-492 72.5,-488 72.5,-456 161.5,-456 165.5,-460 165.5,-492"/>
<polyline fill="none" stroke="red" points="161.5,-488 72.5,-488 "/>
<polyline fill="none" stroke="red" points="161.5,-488 161.5,-456 "/>
<polyline fill="none" stroke="red" points="161.5,-488 165.5,-492 "/>
<text text-anchor="middle" x="119" y="-470.3" font-family="Times,serif" font-size="14.00">FirstSequence</text>
</g>
<!-- FirstVerb&#45;&gt;FirstSequence -->
<g id="edge1" class="edge"><title>FirstVerb&#45;&gt;FirstSequence</title>
<path fill="none" stroke="red" d="M54.5761,-528.813C65.4345,-519.743 78.9221,-508.477 90.7461,-498.6"/>
<polygon fill="red" stroke="red" points="93.1823,-501.126 98.6134,-492.029 88.6948,-495.753 93.1823,-501.126"/>
</g>
<!-- FirstObject -->
<g id="node2" class="node"><title>FirstObject</title>
<polygon fill="none" stroke="red" points="163.5,-565 86.5,-565 86.5,-529 163.5,-529 163.5,-565"/>
<text text-anchor="middle" x="125" y="-543.3" font-family="Times,serif" font-size="14.00">FirstObject</text>
</g>
<!-- FirstObject&#45;&gt;FirstSequence -->
<g id="edge2" class="edge"><title>FirstObject&#45;&gt;FirstSequence</title>
<path fill="none" stroke="red" d="M123.548,-528.813C122.87,-520.789 122.046,-511.047 121.288,-502.069"/>
<polygon fill="red" stroke="red" points="124.769,-501.699 120.439,-492.029 117.794,-502.288 124.769,-501.699"/>
</g>
<!-- SecondVerb -->
<g id="node3" class="node"><title>SecondVerb</title>
<polygon fill="none" stroke="blue" points="269.5,-565 186.5,-565 186.5,-529 269.5,-529 269.5,-565"/>
<text text-anchor="middle" x="228" y="-543.3" font-family="Times,serif" font-size="14.00">SecondVerb</text>
</g>
<!-- SecondSequence -->
<g id="node6" class="node"><title>SecondSequence</title>
<polygon fill="none" stroke="blue" points="292,-492 188,-492 184,-488 184,-456 288,-456 292,-460 292,-492"/>
<polyline fill="none" stroke="blue" points="288,-488 184,-488 "/>
<polyline fill="none" stroke="blue" points="288,-488 288,-456 "/>
<polyline fill="none" stroke="blue" points="288,-488 292,-492 "/>
<text text-anchor="middle" x="238" y="-470.3" font-family="Times,serif" font-size="14.00">SecondSequence</text>
</g>
<!-- SecondVerb&#45;&gt;SecondSequence -->
<g id="edge3" class="edge"><title>SecondVerb&#45;&gt;SecondSequence</title>
<path fill="none" stroke="blue" d="M230.421,-528.813C231.551,-520.789 232.923,-511.047 234.187,-502.069"/>
<polygon fill="blue" stroke="blue" points="237.673,-502.419 235.602,-492.029 230.741,-501.443 237.673,-502.419"/>
</g>
<!-- SecondObject -->
<g id="node4" class="node"><title>SecondObject</title>
<polygon fill="none" stroke="blue" points="380,-565 288,-565 288,-529 380,-529 380,-565"/>
<text text-anchor="middle" x="334" y="-543.3" font-family="Times,serif" font-size="14.00">SecondObject</text>
</g>
<!-- SecondObject&#45;&gt;SecondSequence -->
<g id="edge4" class="edge"><title>SecondObject&#45;&gt;SecondSequence</title>
<path fill="none" stroke="blue" d="M310.761,-528.813C298.262,-519.569 282.678,-508.043 269.142,-498.032"/>
<polygon fill="blue" stroke="blue" points="271.146,-495.161 261.025,-492.029 266.984,-500.789 271.146,-495.161"/>
</g>
<!-- LSTM -->
<g id="node11" class="node"><title>LSTM</title>
<ellipse fill="lightgrey" stroke="black" cx="190" cy="-401" rx="34.394" ry="18"/>
<text text-anchor="middle" x="190" y="-397.3" font-family="Times,serif" font-size="14.00">LSTM</text>
</g>
<!-- FirstSequence&#45;&gt;LSTM -->
<g id="edge5" class="edge"><title>FirstSequence&#45;&gt;LSTM</title>
<path fill="none" stroke="red" d="M136.187,-455.813C145.475,-446.525 157.066,-434.934 167.109,-424.891"/>
<polygon fill="red" stroke="red" points="169.828,-427.122 174.424,-417.576 164.878,-422.172 169.828,-427.122"/>
</g>
<!-- SecondSequence&#45;&gt;LSTM -->
<g id="edge6" class="edge"><title>SecondSequence&#45;&gt;LSTM</title>
<path fill="none" stroke="blue" d="M226.381,-455.813C220.518,-447.141 213.297,-436.46 206.838,-426.907"/>
<polygon fill="blue" stroke="blue" points="209.682,-424.864 201.182,-418.54 203.883,-428.785 209.682,-424.864"/>
</g>
<!-- FirstRR -->
<g id="node7" class="node"><title>FirstRR</title>
<polygon fill="none" stroke="red" points="262.5,-346 203.5,-346 203.5,-310 262.5,-310 262.5,-346"/>
<text text-anchor="middle" x="233" y="-324.3" font-family="Times,serif" font-size="14.00">FirstRR</text>
</g>
<!-- Cosine -->
<g id="node12" class="node"><title>Cosine</title>
<ellipse fill="lightgrey" stroke="black" cx="194" cy="-255" rx="35.194" ry="18"/>
<text text-anchor="middle" x="194" y="-251.3" font-family="Times,serif" font-size="14.00">Cosine</text>
</g>
<!-- FirstRR&#45;&gt;Cosine -->
<g id="edge9" class="edge"><title>FirstRR&#45;&gt;Cosine</title>
<path fill="none" stroke="red" d="M223.559,-309.813C218.893,-301.318 213.168,-290.895 208.003,-281.493"/>
<polygon fill="red" stroke="red" points="210.967,-279.62 203.085,-272.54 204.832,-282.99 210.967,-279.62"/>
</g>
<!-- SecondRR -->
<g id="node8" class="node"><title>SecondRR</title>
<polygon fill="none" stroke="blue" points="185,-346 111,-346 111,-310 185,-310 185,-346"/>
<text text-anchor="middle" x="148" y="-324.3" font-family="Times,serif" font-size="14.00">SecondRR</text>
</g>
<!-- SecondRR&#45;&gt;Cosine -->
<g id="edge10" class="edge"><title>SecondRR&#45;&gt;Cosine</title>
<path fill="none" stroke="blue" d="M159.135,-309.813C164.697,-301.229 171.533,-290.678 177.673,-281.2"/>
<polygon fill="blue" stroke="blue" points="180.784,-282.836 183.284,-272.54 174.909,-279.029 180.784,-282.836"/>
</g>
<!-- Similarity -->
<g id="node9" class="node"><title>Similarity</title>
<polygon fill="none" stroke="purple" points="229.5,-186 158.5,-186 158.5,-150 229.5,-150 229.5,-186"/>
<text text-anchor="middle" x="194" y="-164.3" font-family="Times,serif" font-size="14.00">Similarity</text>
</g>
<!-- Predictor -->
<g id="node13" class="node"><title>Predictor</title>
<ellipse fill="lightgrey" stroke="black" cx="194" cy="-95" rx="42.7926" ry="18"/>
<text text-anchor="middle" x="194" y="-91.3" font-family="Times,serif" font-size="14.00">Predictor</text>
</g>
<!-- Similarity&#45;&gt;Predictor -->
<g id="edge12" class="edge"><title>Similarity&#45;&gt;Predictor</title>
<path fill="none" stroke="purple" d="M194,-149.813C194,-141.789 194,-132.047 194,-123.069"/>
<polygon fill="purple" stroke="purple" points="197.5,-123.029 194,-113.029 190.5,-123.029 197.5,-123.029"/>
</g>
<!-- ŷ -->
<g id="node10" class="node"><title>ŷ</title>
<ellipse fill="none" stroke="purple" cx="194" cy="-20" rx="20" ry="20"/>
<text text-anchor="middle" x="194" y="-16.3" font-family="Times,serif" font-size="14.00">ŷ</text>
</g>
<!-- ŷ&#45;&gt;LSTM -->
<g id="edge14" class="edge"><title>ŷ&#45;&gt;LSTM</title>
<path fill="none" stroke="black" stroke-dasharray="1,5" d="M178.691,-33.0928C166.723,-43.4319 150.703,-59.3984 142,-77 95.4298,-171.186 110.921,-205.309 102,-310 100.642,-325.942 94.1863,-332.038 102,-346 112.66,-365.048 133.09,-378.193 151.583,-386.741"/>
<polygon fill="black" stroke="black" points="150.447,-390.062 161.016,-390.799 153.213,-383.632 150.447,-390.062"/>
<text text-anchor="middle" x="132.5" y="-207.8" font-family="Times,serif" font-size="14.00">backprop</text>
</g>
<!-- ŷ&#45;&gt;Predictor -->
<g id="edge15" class="edge"><title>ŷ&#45;&gt;Predictor</title>
<path fill="none" stroke="black" stroke-dasharray="1,5" d="M199.923,-39.1153C200.753,-47.5515 200.958,-57.761 200.539,-67.0753"/>
<polygon fill="black" stroke="black" points="197.047,-66.8381 199.801,-77.0688 204.028,-67.354 197.047,-66.8381"/>
</g>
<!-- LSTM&#45;&gt;FirstRR -->
<g id="edge7" class="edge"><title>LSTM&#45;&gt;FirstRR</title>
<path fill="none" stroke="red" d="M199.973,-383.533C205.087,-375.089 211.436,-364.605 217.197,-355.093"/>
<polygon fill="red" stroke="red" points="220.294,-356.735 222.481,-346.369 214.307,-353.109 220.294,-356.735"/>
</g>
<!-- LSTM&#45;&gt;SecondRR -->
<g id="edge8" class="edge"><title>LSTM&#45;&gt;SecondRR</title>
<path fill="none" stroke="blue" d="M180.259,-383.533C175.264,-375.089 169.062,-364.605 163.435,-355.093"/>
<polygon fill="blue" stroke="blue" points="166.378,-353.193 158.274,-346.369 160.353,-356.757 166.378,-353.193"/>
</g>
<!-- Cosine&#45;&gt;Similarity -->
<g id="edge11" class="edge"><title>Cosine&#45;&gt;Similarity</title>
<path fill="none" stroke="purple" d="M194,-236.799C194,-225.163 194,-209.548 194,-196.237"/>
<polygon fill="purple" stroke="purple" points="197.5,-196.175 194,-186.175 190.5,-196.175 197.5,-196.175"/>
</g>
<!-- Predictor&#45;&gt;ŷ -->
<g id="edge13" class="edge"><title>Predictor&#45;&gt;ŷ</title>
<path fill="none" stroke="purple" d="M188.199,-77.0688C187.31,-68.8063 187.046,-58.6442 187.406,-49.2512"/>
<polygon fill="purple" stroke="purple" points="190.908,-49.3249 188.077,-39.1153 183.924,-48.8619 190.908,-49.3249"/>
</g>
</g>
</svg>
