<?xml version="1.0" encoding="UTF-8" standalone="no"?>
<!DOCTYPE svg PUBLIC "-//W3C//DTD SVG 1.1//EN"
 "http://www.w3.org/Graphics/SVG/1.1/DTD/svg11.dtd">
<!-- Generated by graphviz version 2.38.0 (20140413.2041)
 -->
<!-- Title: %3 Pages: 1 -->
<svg width="621pt" height="699pt"
 viewBox="0.00 0.00 621.00 699.00" xmlns="http://www.w3.org/2000/svg" xmlns:xlink="http://www.w3.org/1999/xlink">
<g id="graph0" class="graph" transform="scale(1 1) rotate(0) translate(4 695)">
<title>%3</title>
<polygon fill="white" stroke="none" points="-4,4 -4,-695 617,-695 617,4 -4,4"/>
<!-- FirstVerb -->
<g id="node1" class="node"><title>FirstVerb</title>
<polygon fill="none" stroke="red" points="68,-691 0,-691 0,-655 68,-655 68,-691"/>
<text text-anchor="middle" x="34" y="-669.3" font-family="Times,serif" font-size="14.00">FirstVerb</text>
</g>
<!-- FirstSequence -->
<g id="node7" class="node"><title>FirstSequence</title>
<polygon fill="none" stroke="red" points="136.5,-618 47.5,-618 43.5,-614 43.5,-582 132.5,-582 136.5,-586 136.5,-618"/>
<polyline fill="none" stroke="red" points="132.5,-614 43.5,-614 "/>
<polyline fill="none" stroke="red" points="132.5,-614 132.5,-582 "/>
<polyline fill="none" stroke="red" points="132.5,-614 136.5,-618 "/>
<text text-anchor="middle" x="90" y="-596.3" font-family="Times,serif" font-size="14.00">FirstSequence</text>
</g>
<!-- FirstVerb&#45;&gt;FirstSequence -->
<g id="edge7" class="edge"><title>FirstVerb&#45;&gt;FirstSequence</title>
<path fill="none" stroke="red" stroke-dasharray="5,2" d="M47.556,-654.813C54.3658,-646.179 62.7453,-635.555 70.2548,-626.034"/>
<polygon fill="red" stroke="red" points="73.124,-628.048 76.5688,-618.029 67.6278,-623.713 73.124,-628.048"/>
</g>
<!-- FirstObject -->
<g id="node2" class="node"><title>FirstObject</title>
<polygon fill="none" stroke="red" points="163.5,-691 86.5,-691 86.5,-655 163.5,-655 163.5,-691"/>
<text text-anchor="middle" x="125" y="-669.3" font-family="Times,serif" font-size="14.00">FirstObject</text>
</g>
<!-- FirstObject&#45;&gt;FirstSequence -->
<g id="edge8" class="edge"><title>FirstObject&#45;&gt;FirstSequence</title>
<path fill="none" stroke="red" stroke-dasharray="5,2" d="M116.527,-654.813C112.443,-646.528 107.456,-636.41 102.912,-627.193"/>
<polygon fill="red" stroke="red" points="105.955,-625.451 98.3945,-618.029 99.6768,-628.546 105.955,-625.451"/>
</g>
<!-- Matmul -->
<g id="node21" class="node"><title>Matmul</title>
<ellipse fill="lightgrey" stroke="black" cx="337" cy="-419" rx="39.7935" ry="18"/>
<text text-anchor="middle" x="337" y="-415.3" font-family="Times,serif" font-size="14.00">Matmul</text>
</g>
<!-- FirstObject&#45;&gt;Matmul -->
<g id="edge24" class="edge"><title>FirstObject&#45;&gt;Matmul</title>
<path fill="none" stroke="red" d="M135.024,-654.8C146.136,-636.218 165.008,-606.044 184,-582 225.78,-529.107 281.562,-473.171 312.932,-442.835"/>
<polygon fill="red" stroke="red" points="315.578,-445.146 320.359,-435.691 310.725,-440.101 315.578,-445.146"/>
</g>
<!-- FirstSignature -->
<g id="node3" class="node"><title>FirstSignature</title>
<polygon fill="none" stroke="red" points="486.5,-691 393.5,-691 393.5,-655 486.5,-655 486.5,-691"/>
<text text-anchor="middle" x="440" y="-669.3" font-family="Times,serif" font-size="14.00">FirstSignature</text>
</g>
<!-- Embedding -->
<g id="node17" class="node"><title>Embedding</title>
<ellipse fill="lightgrey" stroke="black" cx="440" cy="-600" rx="51.9908" ry="18"/>
<text text-anchor="middle" x="440" y="-596.3" font-family="Times,serif" font-size="14.00">Embedding</text>
</g>
<!-- FirstSignature&#45;&gt;Embedding -->
<g id="edge19" class="edge"><title>FirstSignature&#45;&gt;Embedding</title>
<path fill="none" stroke="red" d="M440,-654.813C440,-646.789 440,-637.047 440,-628.069"/>
<polygon fill="red" stroke="red" points="443.5,-628.029 440,-618.029 436.5,-628.029 443.5,-628.029"/>
</g>
<!-- SecondVerb -->
<g id="node4" class="node"><title>SecondVerb</title>
<polygon fill="none" stroke="blue" points="264.5,-691 181.5,-691 181.5,-655 264.5,-655 264.5,-691"/>
<text text-anchor="middle" x="223" y="-669.3" font-family="Times,serif" font-size="14.00">SecondVerb</text>
</g>
<!-- SecondSequence -->
<g id="node8" class="node"><title>SecondSequence</title>
<polygon fill="none" stroke="blue" points="301,-618 197,-618 193,-614 193,-582 297,-582 301,-586 301,-618"/>
<polyline fill="none" stroke="blue" points="297,-614 193,-614 "/>
<polyline fill="none" stroke="blue" points="297,-614 297,-582 "/>
<polyline fill="none" stroke="blue" points="297,-614 301,-618 "/>
<text text-anchor="middle" x="247" y="-596.3" font-family="Times,serif" font-size="14.00">SecondSequence</text>
</g>
<!-- SecondVerb&#45;&gt;SecondSequence -->
<g id="edge9" class="edge"><title>SecondVerb&#45;&gt;SecondSequence</title>
<path fill="none" stroke="blue" stroke-dasharray="5,2" d="M228.81,-654.813C231.551,-646.702 234.887,-636.836 237.949,-627.777"/>
<polygon fill="blue" stroke="blue" points="241.357,-628.623 241.244,-618.029 234.726,-626.381 241.357,-628.623"/>
</g>
<!-- SecondObject -->
<g id="node5" class="node"><title>SecondObject</title>
<polygon fill="none" stroke="blue" points="375,-691 283,-691 283,-655 375,-655 375,-691"/>
<text text-anchor="middle" x="329" y="-669.3" font-family="Times,serif" font-size="14.00">SecondObject</text>
</g>
<!-- SecondObject&#45;&gt;SecondSequence -->
<g id="edge10" class="edge"><title>SecondObject&#45;&gt;SecondSequence</title>
<path fill="none" stroke="blue" stroke-dasharray="5,2" d="M309.15,-654.813C298.675,-645.743 285.663,-634.477 274.257,-624.6"/>
<polygon fill="blue" stroke="blue" points="276.518,-621.929 266.667,-618.029 271.936,-627.221 276.518,-621.929"/>
</g>
<!-- SecondObject&#45;&gt;Matmul -->
<g id="edge26" class="edge"><title>SecondObject&#45;&gt;Matmul</title>
<path fill="none" stroke="blue" d="M329.55,-654.679C330.918,-611.596 334.481,-499.333 336.135,-447.261"/>
<polygon fill="blue" stroke="blue" points="339.638,-447.215 336.457,-437.109 332.641,-446.993 339.638,-447.215"/>
</g>
<!-- SecondSignature -->
<g id="node6" class="node"><title>SecondSignature</title>
<polygon fill="none" stroke="blue" points="613,-691 505,-691 505,-655 613,-655 613,-691"/>
<text text-anchor="middle" x="559" y="-669.3" font-family="Times,serif" font-size="14.00">SecondSignature</text>
</g>
<!-- SecondSignature&#45;&gt;Embedding -->
<g id="edge20" class="edge"><title>SecondSignature&#45;&gt;Embedding</title>
<path fill="none" stroke="blue" d="M530.497,-654.994C513.516,-644.863 491.863,-631.943 473.994,-621.282"/>
<polygon fill="blue" stroke="blue" points="475.421,-618.058 465.04,-615.94 471.835,-624.069 475.421,-618.058"/>
</g>
<!-- FirstSequence&#45;&gt;SecondSequence -->
<!-- LSTM -->
<g id="node18" class="node"><title>LSTM</title>
<ellipse fill="lightgrey" stroke="black" cx="109" cy="-473" rx="34.394" ry="18"/>
<text text-anchor="middle" x="109" y="-469.3" font-family="Times,serif" font-size="14.00">LSTM</text>
</g>
<!-- FirstSequence&#45;&gt;LSTM -->
<g id="edge11" class="edge"><title>FirstSequence&#45;&gt;LSTM</title>
<path fill="none" stroke="red" stroke-dasharray="5,2" d="M92.602,-581.881C95.7538,-561.146 101.103,-525.953 104.832,-501.422"/>
<polygon fill="red" stroke="red" points="108.326,-501.725 106.368,-491.313 101.405,-500.673 108.326,-501.725"/>
</g>
<!-- SecondSequence&#45;&gt;Embedding -->
<!-- SecondSequence&#45;&gt;LSTM -->
<g id="edge12" class="edge"><title>SecondSequence&#45;&gt;LSTM</title>
<path fill="none" stroke="blue" stroke-dasharray="5,2" d="M228.101,-581.881C203.377,-559.486 160.032,-520.224 133.009,-495.747"/>
<polygon fill="blue" stroke="blue" points="135.279,-493.081 125.518,-488.962 130.579,-498.269 135.279,-493.081"/>
</g>
<!-- FirstRR -->
<g id="node9" class="node"><title>FirstRR</title>
<polygon fill="none" stroke="red" points="127.5,-364 68.5,-364 68.5,-328 127.5,-328 127.5,-364"/>
<text text-anchor="middle" x="98" y="-342.3" font-family="Times,serif" font-size="14.00">FirstRR</text>
</g>
<!-- SecondRR -->
<g id="node10" class="node"><title>SecondRR</title>
<polygon fill="none" stroke="blue" points="237,-364 163,-364 163,-328 237,-328 237,-364"/>
<text text-anchor="middle" x="200" y="-342.3" font-family="Times,serif" font-size="14.00">SecondRR</text>
</g>
<!-- FirstRR&#45;&gt;SecondRR -->
<!-- Cosine -->
<g id="node19" class="node"><title>Cosine</title>
<ellipse fill="lightgrey" stroke="black" cx="251" cy="-259" rx="35.194" ry="18"/>
<text text-anchor="middle" x="251" y="-255.3" font-family="Times,serif" font-size="14.00">Cosine</text>
</g>
<!-- FirstRR&#45;&gt;Cosine -->
<g id="edge29" class="edge"><title>FirstRR&#45;&gt;Cosine</title>
<path fill="none" stroke="red" stroke-dasharray="5,2" d="M127.863,-328.409C154.001,-313.888 191.886,-292.841 218.718,-277.934"/>
<polygon fill="red" stroke="red" points="220.669,-280.855 227.711,-272.939 217.269,-274.735 220.669,-280.855"/>
</g>
<!-- FirstAR -->
<g id="node15" class="node"><title>FirstAR</title>
<polygon fill="none" stroke="red" points="333,-364 273,-364 273,-328 333,-328 333,-364"/>
<text text-anchor="middle" x="303" y="-342.3" font-family="Times,serif" font-size="14.00">FirstAR</text>
</g>
<!-- SecondRR&#45;&gt;FirstAR -->
<!-- SecondRR&#45;&gt;Cosine -->
<g id="edge31" class="edge"><title>SecondRR&#45;&gt;Cosine</title>
<path fill="none" stroke="blue" stroke-dasharray="5,2" d="M210.321,-327.799C217.652,-315.58 227.615,-298.976 235.846,-285.257"/>
<polygon fill="blue" stroke="blue" points="239.07,-286.686 241.214,-276.31 233.068,-283.084 239.07,-286.686"/>
</g>
<!-- Similarity -->
<g id="node11" class="node"><title>Similarity</title>
<ellipse fill="none" stroke="purple" cx="251" cy="-177" rx="27" ry="27"/>
<text text-anchor="middle" x="251" y="-173.3" font-family="Times,serif" font-size="14.00">Similarity</text>
</g>
<!-- Predictor -->
<g id="node20" class="node"><title>Predictor</title>
<ellipse fill="lightgrey" stroke="black" cx="251" cy="-95" rx="42.7926" ry="18"/>
<text text-anchor="middle" x="251" y="-91.3" font-family="Times,serif" font-size="14.00">Predictor</text>
</g>
<!-- Similarity&#45;&gt;Predictor -->
<g id="edge16" class="edge"><title>Similarity&#45;&gt;Predictor</title>
<path fill="none" stroke="purple" d="M238.628,-152.861C237.281,-143.372 237.14,-132.333 238.206,-122.521"/>
<polygon fill="purple" stroke="purple" points="241.687,-122.917 239.835,-112.485 234.778,-121.795 241.687,-122.917"/>
</g>
<!-- Similarity&#45;&gt;Predictor -->
<g id="edge35" class="edge"><title>Similarity&#45;&gt;Predictor</title>
<path fill="none" stroke="red" d="M251,-149.805C251,-141.346 251,-131.949 251,-123.405"/>
<polygon fill="red" stroke="red" points="254.5,-123.174 251,-113.174 247.5,-123.174 254.5,-123.174"/>
</g>
<!-- Similarity&#45;&gt;Predictor -->
<g id="edge36" class="edge"><title>Similarity&#45;&gt;Predictor</title>
<path fill="none" stroke="blue" d="M263.372,-152.861C264.719,-143.372 264.86,-132.333 263.794,-122.521"/>
<polygon fill="blue" stroke="blue" points="267.222,-121.795 262.165,-112.485 260.313,-122.917 267.222,-121.795"/>
</g>
<!-- ŷ -->
<g id="node12" class="node"><title>ŷ</title>
<ellipse fill="none" stroke="purple" cx="251" cy="-20" rx="20" ry="20"/>
<text text-anchor="middle" x="251" y="-16.3" font-family="Times,serif" font-size="14.00">ŷ</text>
</g>
<!-- ŷ&#45;&gt;Embedding -->
<g id="edge18" class="edge"><title>ŷ&#45;&gt;Embedding</title>
<path fill="none" stroke="black" stroke-dasharray="1,5" d="M265.535,-33.8505C323.148,-85.9069 535.684,-288.867 605,-509 609.805,-524.261 614.391,-532.046 605,-545 581.553,-577.344 538.157,-590.671 501.753,-596.004"/>
<polygon fill="black" stroke="black" points="501.162,-592.551 491.694,-597.305 502.06,-599.493 501.162,-592.551"/>
<text text-anchor="middle" x="531.5" y="-298.8" font-family="Times,serif" font-size="14.00">backprop</text>
</g>
<!-- FirstVerbMap -->
<g id="node13" class="node"><title>FirstVerbMap</title>
<polygon fill="none" stroke="red" points="451,-545 361,-545 357,-541 357,-509 447,-509 451,-513 451,-545"/>
<polyline fill="none" stroke="red" points="447,-541 357,-541 "/>
<polyline fill="none" stroke="red" points="447,-541 447,-509 "/>
<polyline fill="none" stroke="red" points="447,-541 451,-545 "/>
<text text-anchor="middle" x="404" y="-523.3" font-family="Times,serif" font-size="14.00">FirstVerbMap</text>
</g>
<!-- SecondVerbMap -->
<g id="node14" class="node"><title>SecondVerbMap</title>
<polygon fill="none" stroke="blue" points="595.5,-545 490.5,-545 486.5,-541 486.5,-509 591.5,-509 595.5,-513 595.5,-545"/>
<polyline fill="none" stroke="blue" points="591.5,-541 486.5,-541 "/>
<polyline fill="none" stroke="blue" points="591.5,-541 591.5,-509 "/>
<polyline fill="none" stroke="blue" points="591.5,-541 595.5,-545 "/>
<text text-anchor="middle" x="541" y="-523.3" font-family="Times,serif" font-size="14.00">SecondVerbMap</text>
</g>
<!-- FirstVerbMap&#45;&gt;SecondVerbMap -->
<!-- FirstVerbMap&#45;&gt;Matmul -->
<g id="edge23" class="edge"><title>FirstVerbMap&#45;&gt;Matmul</title>
<path fill="none" stroke="red" d="M393.235,-508.969C382.329,-491.714 365.335,-464.828 352.881,-445.126"/>
<polygon fill="red" stroke="red" points="355.819,-443.222 347.517,-436.639 349.902,-446.962 355.819,-443.222"/>
</g>
<!-- SecondVerbMap&#45;&gt;Matmul -->
<g id="edge25" class="edge"><title>SecondVerbMap&#45;&gt;Matmul</title>
<path fill="none" stroke="blue" d="M508.224,-508.969C470.637,-489.439 409.306,-457.571 371.152,-437.745"/>
<polygon fill="blue" stroke="blue" points="372.467,-434.485 361.979,-432.979 369.239,-440.696 372.467,-434.485"/>
</g>
<!-- SecondAR -->
<g id="node16" class="node"><title>SecondAR</title>
<polygon fill="none" stroke="blue" points="443.5,-364 368.5,-364 368.5,-328 443.5,-328 443.5,-364"/>
<text text-anchor="middle" x="406" y="-342.3" font-family="Times,serif" font-size="14.00">SecondAR</text>
</g>
<!-- FirstAR&#45;&gt;SecondAR -->
<!-- FirstAR&#45;&gt;Cosine -->
<g id="edge30" class="edge"><title>FirstAR&#45;&gt;Cosine</title>
<path fill="none" stroke="red" d="M292.477,-327.799C284.93,-315.463 274.648,-298.656 266.21,-284.862"/>
<polygon fill="red" stroke="red" points="269.182,-283.014 260.978,-276.31 263.211,-286.667 269.182,-283.014"/>
</g>
<!-- SecondAR&#45;&gt;Cosine -->
<g id="edge32" class="edge"><title>SecondAR&#45;&gt;Cosine</title>
<path fill="none" stroke="blue" d="M374.633,-327.799C348.046,-313.219 310.068,-292.392 283.236,-277.678"/>
<polygon fill="blue" stroke="blue" points="284.698,-274.488 274.247,-272.748 281.332,-280.626 284.698,-274.488"/>
</g>
<!-- Embedding&#45;&gt;FirstVerbMap -->
<g id="edge21" class="edge"><title>Embedding&#45;&gt;FirstVerbMap</title>
<path fill="none" stroke="red" d="M431.469,-582.174C427.227,-573.809 422.005,-563.509 417.256,-554.145"/>
<polygon fill="red" stroke="red" points="420.364,-552.535 412.72,-545.198 414.121,-555.7 420.364,-552.535"/>
</g>
<!-- Embedding&#45;&gt;SecondVerbMap -->
<g id="edge22" class="edge"><title>Embedding&#45;&gt;SecondVerbMap</title>
<path fill="none" stroke="blue" d="M461.915,-583.594C475.398,-574.116 492.934,-561.789 508.066,-551.151"/>
<polygon fill="blue" stroke="blue" points="510.481,-553.732 516.649,-545.118 506.456,-548.005 510.481,-553.732"/>
</g>
<!-- LSTM&#45;&gt;FirstRR -->
<g id="edge13" class="edge"><title>LSTM&#45;&gt;FirstRR</title>
<path fill="none" stroke="red" stroke-dasharray="5,2" d="M107.494,-454.881C105.669,-434.146 102.572,-398.953 100.413,-374.422"/>
<polygon fill="red" stroke="red" points="103.887,-373.968 99.5235,-364.313 96.9137,-374.581 103.887,-373.968"/>
</g>
<!-- LSTM&#45;&gt;SecondRR -->
<g id="edge14" class="edge"><title>LSTM&#45;&gt;SecondRR</title>
<path fill="none" stroke="blue" stroke-dasharray="5,2" d="M120.71,-455.914C136.083,-434.798 163.245,-397.488 181.434,-372.503"/>
<polygon fill="blue" stroke="blue" points="184.404,-374.37 187.46,-364.226 178.744,-370.251 184.404,-374.37"/>
</g>
<!-- Cosine&#45;&gt;Similarity -->
<g id="edge15" class="edge"><title>Cosine&#45;&gt;Similarity</title>
<path fill="none" stroke="purple" d="M239.903,-241.811C237.878,-233.045 237.133,-221.88 237.667,-211.348"/>
<polygon fill="purple" stroke="purple" points="241.176,-211.423 238.628,-201.139 234.206,-210.767 241.176,-211.423"/>
</g>
<!-- Cosine&#45;&gt;Similarity -->
<g id="edge33" class="edge"><title>Cosine&#45;&gt;Similarity</title>
<path fill="none" stroke="red" d="M251,-240.641C251,-232.895 251,-223.46 251,-214.287"/>
<polygon fill="red" stroke="red" points="254.5,-214.147 251,-204.147 247.5,-214.147 254.5,-214.147"/>
</g>
<!-- Cosine&#45;&gt;Similarity -->
<g id="edge34" class="edge"><title>Cosine&#45;&gt;Similarity</title>
<path fill="none" stroke="blue" d="M262.097,-241.811C264.122,-233.045 264.867,-221.88 264.333,-211.348"/>
<polygon fill="blue" stroke="blue" points="267.794,-210.767 263.372,-201.139 260.824,-211.423 267.794,-210.767"/>
</g>
<!-- Predictor&#45;&gt;ŷ -->
<g id="edge17" class="edge"><title>Predictor&#45;&gt;ŷ</title>
<path fill="none" stroke="purple" d="M239.478,-77.4352C237.489,-68.4435 237,-57.1234 238.011,-46.9862"/>
<polygon fill="purple" stroke="purple" points="241.485,-47.4246 239.607,-36.9976 234.573,-46.3201 241.485,-47.4246"/>
</g>
<!-- Predictor&#45;&gt;ŷ -->
<g id="edge37" class="edge"><title>Predictor&#45;&gt;ŷ</title>
<path fill="none" stroke="red" d="M251,-76.7C251,-68.8209 251,-59.2732 251,-50.3245"/>
<polygon fill="red" stroke="red" points="254.5,-50.2306 251,-40.2306 247.5,-50.2306 254.5,-50.2306"/>
</g>
<!-- Predictor&#45;&gt;ŷ -->
<g id="edge38" class="edge"><title>Predictor&#45;&gt;ŷ</title>
<path fill="none" stroke="blue" d="M262.522,-77.4352C264.511,-68.4435 265,-57.1234 263.989,-46.9862"/>
<polygon fill="blue" stroke="blue" points="267.427,-46.3201 262.393,-36.9976 260.515,-47.4246 267.427,-46.3201"/>
</g>
<!-- Matmul&#45;&gt;FirstAR -->
<g id="edge27" class="edge"><title>Matmul&#45;&gt;FirstAR</title>
<path fill="none" stroke="red" d="M328.942,-401.174C324.978,-392.896 320.107,-382.723 315.66,-373.438"/>
<polygon fill="red" stroke="red" points="318.712,-371.706 311.236,-364.198 312.398,-374.729 318.712,-371.706"/>
</g>
<!-- Matmul&#45;&gt;SecondAR -->
<g id="edge28" class="edge"><title>Matmul&#45;&gt;SecondAR</title>
<path fill="none" stroke="blue" d="M352.313,-402.243C361.046,-393.258 372.182,-381.798 382.046,-371.648"/>
<polygon fill="blue" stroke="blue" points="384.821,-373.815 389.281,-364.204 379.801,-368.936 384.821,-373.815"/>
</g>
</g>
</svg>
